<svg width="24" height="24" viewBox="0 0 24 24" fill="none" xmlns="http://www.w3.org/2000/svg">
<g filter="url(#filter0_d)">
<path d="M19.7 14.3L16.6 11.2C17.5 10 18 8.6 18 7C18 3.1 14.9 0 11 0C7.1 0 4 3.1 4 7C4 10.9 7.1 14 11 14C12.6 14 14 13.5 15.2 12.6L18.3 15.7C18.5 15.9 18.7 16 19 16C19.6 16 20 15.6 20 15C20 14.8 19.9 14.5 19.7 14.3ZM6 7C6 4.2 8.2 2 11 2C13.8 2 16 4.2 16 7C16 9.8 13.8 12 11 12C8.2 12 6 9.8 6 7Z" fill="black"/>
</g>
<defs>
<filter id="filter0_d" x="0" y="0" width="24" height="24" filterUnits="userSpaceOnUse" color-interpolation-filters="sRGB">
<feFlood flood-opacity="0" result="BackgroundImageFix"/>
<feColorMatrix in="SourceAlpha" type="matrix" values="0 0 0 0 0 0 0 0 0 0 0 0 0 0 0 0 0 0 127 0" result="hardAlpha"/>
<feOffset dy="4"/>
<feGaussianBlur stdDeviation="2"/>
<feComposite in2="hardAlpha" operator="out"/>
<feColorMatrix type="matrix" values="0 0 0 0 0 0 0 0 0 0 0 0 0 0 0 0 0 0 0.25 0"/>
<feBlend mode="normal" in2="BackgroundImageFix" result="effect1_dropShadow"/>
<feBlend mode="normal" in="SourceGraphic" in2="effect1_dropShadow" result="shape"/>
</filter>
</defs>
</svg>
